<svg width="56" height="56" viewBox="0 0 56 56" fill="none" xmlns="http://www.w3.org/2000/svg">
<g clip-path="url(#clip0_99_341)">
<g filter="url(#filter0_ii_99_341)">
<rect width="56" height="56" fill="url(#paint0_linear_99_341)"/>
</g>
<g filter="url(#filter1_i_99_341)">
<path d="M19.3203 8.68966C17.7578 8.68966 16.5859 8 16.5859 8C17.7869 10.4788 18.1399 11.8804 18.1484 14.4039V22.7783H20.4922V14.4039C20.513 11.7242 20.8578 10.3229 22.0547 8C22.0547 8 20.8828 8.68966 19.3203 8.68966Z" fill="#973C00"/>
<path d="M37.875 15.8818C39.6009 15.8818 41 14.4703 41 12.7291C41 10.9879 39.6009 9.57635 37.875 9.57635C36.1491 9.57635 34.75 10.9879 34.75 12.7291C34.75 14.4703 36.1491 15.8818 37.875 15.8818Z" fill="#973C00"/>
<path d="M22.25 28C22.25 29.7412 20.8509 31.1527 19.125 31.1527C17.3991 31.1527 16 29.7412 16 28C16 26.2588 17.3991 24.8473 19.125 24.8473C20.8509 24.8473 22.25 26.2588 22.25 28Z" fill="#973C00"/>
<path d="M41 43.3695C41 45.1107 39.6009 46.5222 37.875 46.5222C36.1491 46.5222 34.75 45.1107 34.75 43.3695C34.75 41.6283 36.1491 40.2167 37.875 40.2167C39.6009 40.2167 41 41.6283 41 43.3695Z" fill="#973C00"/>
<path d="M24.984 27.046C24.984 27.046 24.7544 25.697 23.75 24.4894C22.7457 23.2819 21.4687 22.8195 21.4687 22.8195C24.0019 22.2514 25.2875 21.6172 27.3357 19.9107L33.6945 14.5278L35.201 16.3391L28.8422 21.722C26.9315 23.3508 26.0942 24.5245 24.984 27.046Z" fill="#973C00"/>
<path d="M23.75 31.5418C22.7457 32.7493 21.4688 33.2117 21.4688 33.2117C24.1229 33.8769 25.414 34.505 27.3357 36.1205L33.6945 41.5034L35.201 39.6921L28.8422 34.3092C26.8208 32.5706 25.9784 31.4033 24.984 28.9852C24.984 28.9852 24.7544 30.3342 23.75 31.5418Z" fill="#973C00"/>
<path d="M16.5859 48C16.5859 48 17.7578 47.3103 19.3203 47.3103C20.8828 47.3103 22.0547 48 22.0547 48C20.8578 45.6771 20.513 44.2758 20.4922 41.5961V33.2217H18.1484V41.5961C18.1399 44.1197 17.7869 45.5212 16.5859 48Z" fill="#973C00"/>
</g>
<g filter="url(#filter2_i_99_341)">
<path d="M56 10.56L37.7096 0H56V10.56Z" fill="#973C00"/>
</g>
</g>
<defs>
<filter id="filter0_ii_99_341" x="-8" y="-10" width="84" height="86" filterUnits="userSpaceOnUse" color-interpolation-filters="sRGB">
<feFlood flood-opacity="0" result="BackgroundImageFix"/>
<feBlend mode="normal" in="SourceGraphic" in2="BackgroundImageFix" result="shape"/>
<feColorMatrix in="SourceAlpha" type="matrix" values="0 0 0 0 0 0 0 0 0 0 0 0 0 0 0 0 0 0 127 0" result="hardAlpha"/>
<feOffset dx="20" dy="21"/>
<feGaussianBlur stdDeviation="10"/>
<feComposite in2="hardAlpha" operator="arithmetic" k2="-1" k3="1"/>
<feColorMatrix type="matrix" values="0 0 0 0 1 0 0 0 0 0.537255 0 0 0 0 0.0156863 0 0 0 1 0"/>
<feBlend mode="normal" in2="shape" result="effect1_innerShadow_99_341"/>
<feColorMatrix in="SourceAlpha" type="matrix" values="0 0 0 0 0 0 0 0 0 0 0 0 0 0 0 0 0 0 127 0" result="hardAlpha"/>
<feOffset dx="-8" dy="-10"/>
<feGaussianBlur stdDeviation="12.5"/>
<feComposite in2="hardAlpha" operator="arithmetic" k2="-1" k3="1"/>
<feColorMatrix type="matrix" values="0 0 0 0 0.960784 0 0 0 0 0.286275 0 0 0 0 0 0 0 0 1 0"/>
<feBlend mode="normal" in2="effect1_innerShadow_99_341" result="effect2_innerShadow_99_341"/>
</filter>
<filter id="filter1_i_99_341" x="16" y="8" width="25" height="42" filterUnits="userSpaceOnUse" color-interpolation-filters="sRGB">
<feFlood flood-opacity="0" result="BackgroundImageFix"/>
<feBlend mode="normal" in="SourceGraphic" in2="BackgroundImageFix" result="shape"/>
<feColorMatrix in="SourceAlpha" type="matrix" values="0 0 0 0 0 0 0 0 0 0 0 0 0 0 0 0 0 0 127 0" result="hardAlpha"/>
<feOffset dy="2"/>
<feGaussianBlur stdDeviation="4"/>
<feComposite in2="hardAlpha" operator="arithmetic" k2="-1" k3="1"/>
<feColorMatrix type="matrix" values="0 0 0 0 0 0 0 0 0 0 0 0 0 0 0 0 0 0 0.25 0"/>
<feBlend mode="normal" in2="shape" result="effect1_innerShadow_99_341"/>
</filter>
<filter id="filter2_i_99_341" x="37.7096" y="0" width="18.2904" height="14.56" filterUnits="userSpaceOnUse" color-interpolation-filters="sRGB">
<feFlood flood-opacity="0" result="BackgroundImageFix"/>
<feBlend mode="normal" in="SourceGraphic" in2="BackgroundImageFix" result="shape"/>
<feColorMatrix in="SourceAlpha" type="matrix" values="0 0 0 0 0 0 0 0 0 0 0 0 0 0 0 0 0 0 127 0" result="hardAlpha"/>
<feOffset dy="4"/>
<feGaussianBlur stdDeviation="2"/>
<feComposite in2="hardAlpha" operator="arithmetic" k2="-1" k3="1"/>
<feColorMatrix type="matrix" values="0 0 0 0 0 0 0 0 0 0 0 0 0 0 0 0 0 0 0.25 0"/>
<feBlend mode="normal" in2="shape" result="effect1_innerShadow_99_341"/>
</filter>
<linearGradient id="paint0_linear_99_341" x1="30.5" y1="-32.5" x2="30.5" y2="77.5" gradientUnits="userSpaceOnUse">
<stop offset="0.53602" stop-color="#FF6900"/>
<stop offset="1" stop-color="#F75101"/>
</linearGradient>
<clipPath id="clip0_99_341">
<rect width="56" height="56" rx="8" fill="white"/>
</clipPath>
</defs>
</svg>
